<svg xmlns="http://www.w3.org/2000/svg" xmlns:xlink="http://www.w3.org/1999/xlink" width="500" zoomAndPan="magnify" viewBox="0 0 375 374.999991" height="500" preserveAspectRatio="xMidYMid meet" version="1.0"><defs><g/><clipPath id="d8ac11f62d"><path d="M 157.214844 132 L 178 132 L 178 162 L 157.214844 162 Z M 157.214844 132 " clip-rule="nonzero"/></clipPath><clipPath id="c8a48aab4a"><path d="M 157.214844 131 L 179 131 L 179 163 L 157.214844 163 Z M 157.214844 131 " clip-rule="nonzero"/></clipPath><clipPath id="9704ffeba7"><path d="M 197 132 L 217.964844 132 L 217.964844 162 L 197 162 Z M 197 132 " clip-rule="nonzero"/></clipPath><clipPath id="1c617473b2"><path d="M 196 131 L 217.964844 131 L 217.964844 163 L 196 163 Z M 196 131 " clip-rule="nonzero"/></clipPath><clipPath id="3b705cf09c"><path d="M 177 123.375 L 198 123.375 L 198 170.625 L 177 170.625 Z M 177 123.375 " clip-rule="nonzero"/></clipPath></defs><g clip-path="url(#d8ac11f62d)"><path fill="#5e17eb" d="M 176.378906 161.898438 C 176.042969 161.898438 175.714844 161.785156 175.449219 161.574219 L 158.460938 148.183594 C 158.09375 147.894531 157.886719 147.464844 157.886719 147 C 157.886719 146.535156 158.09375 146.101562 158.460938 145.8125 L 175.449219 132.421875 C 175.714844 132.214844 176.042969 132.101562 176.378906 132.101562 C 176.84375 132.101562 177.277344 132.308594 177.5625 132.675781 C 177.808594 132.992188 177.921875 133.386719 177.875 133.785156 C 177.828125 134.183594 177.625 134.542969 177.3125 134.792969 L 161.828125 147 L 177.3125 159.203125 C 177.625 159.457031 177.828125 159.8125 177.875 160.210938 C 177.921875 160.613281 177.808594 161.003906 177.5625 161.324219 C 177.277344 161.6875 176.84375 161.898438 176.378906 161.898438 " fill-opacity="1" fill-rule="nonzero"/></g><g clip-path="url(#c8a48aab4a)"><path fill="#8c52ff" d="M 176.378906 131.457031 C 175.902344 131.457031 175.433594 131.621094 175.054688 131.917969 L 158.0625 145.308594 C 157.542969 145.722656 157.246094 146.335938 157.246094 147 C 157.246094 147.660156 157.542969 148.277344 158.0625 148.6875 L 175.054688 162.082031 C 175.429688 162.375 175.902344 162.539062 176.378906 162.539062 C 177.042969 162.539062 177.660156 162.238281 178.066406 161.71875 C 178.421875 161.269531 178.578125 160.707031 178.511719 160.136719 C 178.445312 159.566406 178.160156 159.054688 177.707031 158.699219 L 162.863281 147 L 177.707031 135.296875 C 178.160156 134.941406 178.445312 134.429688 178.511719 133.863281 C 178.578125 133.292969 178.421875 132.730469 178.066406 132.277344 C 177.660156 131.753906 177.042969 131.457031 176.378906 131.457031 Z M 176.378906 132.742188 C 176.636719 132.742188 176.890625 132.855469 177.058594 133.070312 C 177.355469 133.449219 177.289062 133.992188 176.914062 134.289062 L 160.789062 147 L 176.914062 159.710938 C 177.289062 160.003906 177.355469 160.550781 177.058594 160.925781 C 176.890625 161.144531 176.636719 161.257812 176.378906 161.257812 C 176.191406 161.257812 176.007812 161.195312 175.847656 161.070312 L 158.855469 147.679688 C 158.648438 147.515625 158.527344 147.261719 158.527344 147 C 158.527344 146.730469 158.648438 146.484375 158.855469 146.320312 L 175.847656 132.925781 C 176.003906 132.800781 176.191406 132.742188 176.378906 132.742188 " fill-opacity="1" fill-rule="nonzero"/></g><g clip-path="url(#9704ffeba7)"><path fill="#5e17eb" d="M 198.796875 161.898438 C 198.332031 161.898438 197.902344 161.6875 197.613281 161.324219 C 197.101562 160.671875 197.214844 159.71875 197.867188 159.203125 L 213.351562 147 L 197.867188 134.792969 C 197.214844 134.277344 197.101562 133.328125 197.613281 132.675781 C 197.902344 132.308594 198.332031 132.101562 198.796875 132.101562 C 199.132812 132.101562 199.464844 132.214844 199.726562 132.421875 L 216.71875 145.8125 C 217.082031 146.101562 217.289062 146.535156 217.289062 147 C 217.289062 147.464844 217.082031 147.894531 216.714844 148.183594 L 199.726562 161.574219 C 199.464844 161.785156 199.132812 161.898438 198.796875 161.898438 " fill-opacity="1" fill-rule="nonzero"/></g><g clip-path="url(#1c617473b2)"><path fill="#8c52ff" d="M 198.796875 131.457031 C 198.136719 131.457031 197.519531 131.753906 197.109375 132.277344 C 196.378906 133.210938 196.539062 134.5625 197.46875 135.296875 L 212.316406 147 L 197.46875 158.703125 C 196.539062 159.433594 196.378906 160.789062 197.109375 161.71875 C 197.519531 162.238281 198.136719 162.539062 198.796875 162.539062 C 199.277344 162.539062 199.746094 162.375 200.121094 162.082031 L 217.113281 148.6875 C 217.632812 148.277344 217.929688 147.660156 217.929688 147 C 217.929688 146.335938 217.632812 145.722656 217.117188 145.308594 L 200.125 131.917969 C 199.75 131.621094 199.277344 131.457031 198.796875 131.457031 Z M 198.796875 132.742188 C 198.984375 132.742188 199.175781 132.800781 199.332031 132.925781 L 216.320312 146.320312 C 216.527344 146.484375 216.648438 146.730469 216.648438 147 C 216.648438 147.261719 216.527344 147.515625 216.320312 147.679688 L 199.332031 161.070312 C 199.175781 161.195312 198.984375 161.257812 198.796875 161.257812 C 198.539062 161.257812 198.289062 161.144531 198.117188 160.925781 C 197.824219 160.550781 197.886719 160.003906 198.261719 159.710938 L 214.386719 147 L 198.261719 134.289062 C 197.886719 133.992188 197.824219 133.449219 198.117188 133.070312 C 198.289062 132.855469 198.542969 132.742188 198.796875 132.742188 " fill-opacity="1" fill-rule="nonzero"/></g><path fill="#5e17eb" d="M 179.144531 169.980469 C 178.957031 169.980469 178.777344 169.945312 178.601562 169.875 C 178.226562 169.730469 177.929688 169.449219 177.769531 169.082031 C 177.605469 168.710938 177.597656 168.300781 177.742188 167.929688 L 194.335938 124.980469 C 194.558594 124.40625 195.121094 124.019531 195.738281 124.019531 C 195.925781 124.019531 196.109375 124.054688 196.28125 124.121094 C 197.054688 124.421875 197.441406 125.296875 197.140625 126.074219 L 180.550781 169.015625 C 180.328125 169.589844 179.761719 169.980469 179.144531 169.980469 " fill-opacity="1" fill-rule="nonzero"/><g clip-path="url(#3b705cf09c)"><path fill="#8c52ff" d="M 195.738281 123.375 C 194.859375 123.375 194.054688 123.929688 193.738281 124.75 L 177.144531 167.695312 C 176.9375 168.230469 176.953125 168.8125 177.183594 169.339844 C 177.414062 169.863281 177.835938 170.269531 178.371094 170.476562 C 178.621094 170.574219 178.878906 170.621094 179.144531 170.621094 C 180.023438 170.621094 180.828125 170.070312 181.148438 169.246094 L 197.738281 126.304688 C 198.167969 125.199219 197.617188 123.949219 196.511719 123.523438 C 196.265625 123.425781 196.003906 123.375 195.738281 123.375 Z M 195.738281 124.660156 C 195.84375 124.660156 195.945312 124.679688 196.050781 124.71875 C 196.496094 124.890625 196.714844 125.390625 196.542969 125.839844 L 179.949219 168.78125 C 179.820312 169.128906 179.492188 169.335938 179.144531 169.335938 C 179.039062 169.335938 178.9375 169.320312 178.832031 169.277344 C 178.386719 169.105469 178.167969 168.601562 178.339844 168.160156 L 194.933594 125.214844 C 195.066406 124.871094 195.390625 124.660156 195.738281 124.660156 " fill-opacity="1" fill-rule="nonzero"/></g><g fill="#ffffff" fill-opacity="1"><g transform="translate(120.804485, 217.616295)"><g><path d="M 14.082031 0.0820312 L 14.414062 0.0429688 L 15.242188 0.0429688 L 15.78125 0 L 16.03125 -0.0429688 L 16.652344 -0.0429688 L 17.148438 -0.164062 L 17.316406 -0.414062 L 17.398438 -0.703125 L 17.398438 -1.035156 L 17.480469 -1.324219 L 17.523438 -1.65625 L 17.644531 -1.863281 L 17.730469 -2.359375 L 17.769531 -2.816406 L 17.851562 -3.105469 L 17.9375 -3.644531 L 17.976562 -3.933594 L 18.101562 -4.515625 L 18.144531 -5.179688 L 18.183594 -5.757812 L 18.265625 -6.007812 L 18.390625 -6.460938 L 18.515625 -7.042969 L 18.558594 -7.332031 L 18.558594 -7.664062 L 18.679688 -8.242188 L 18.722656 -8.53125 L 18.804688 -8.78125 L 18.886719 -9.070312 L 18.847656 -9.320312 L 19.097656 -10.191406 L 19.054688 -10.4375 L 19.136719 -10.726562 L 19.261719 -11.308594 L 19.34375 -11.765625 L 19.34375 -12.011719 L 19.511719 -12.757812 L 19.550781 -13.046875 L 19.757812 -13.585938 L 19.800781 -13.875 L 19.800781 -14.414062 L 19.839844 -14.703125 L 19.964844 -14.953125 L 19.882812 -15.242188 L 19.882812 -15.574219 L 20.046875 -15.824219 L 20.089844 -16.113281 L 20.214844 -16.691406 L 20.253906 -16.941406 L 20.296875 -17.5625 L 20.503906 -18.144531 L 20.546875 -18.765625 L 20.628906 -19.425781 L 20.710938 -19.964844 L 20.753906 -20.214844 L 20.960938 -20.710938 L 21 -20.960938 L 21.085938 -21.5 L 21.125 -21.828125 L 21.207031 -22.121094 L 21.25 -22.410156 L 21.375 -22.949219 L 21.414062 -23.238281 L 21.5 -23.777344 L 21.5 -24.066406 L 21.539062 -24.605469 L 21.621094 -24.9375 L 21.707031 -25.226562 L 21.746094 -25.515625 L 21.746094 -25.847656 L 21.789062 -26.425781 L 21.953125 -26.925781 L 21.953125 -27.214844 L 21.996094 -27.464844 L 21.953125 -27.628906 L 22.121094 -27.878906 L 22.078125 -28.167969 L 22.121094 -28.414062 L 21.828125 -28.789062 L 21.539062 -28.914062 L 20.875 -28.996094 L 19.71875 -28.996094 L 18.886719 -29.039062 L 17.398438 -29.039062 L 17.023438 -28.996094 L 16.777344 -28.953125 L 16.445312 -28.582031 L 16.402344 -28.332031 L 16.445312 -28.042969 L 16.363281 -27.753906 L 16.195312 -27.378906 L 16.15625 -27.132812 L 16.070312 -26.59375 L 15.988281 -26.34375 L 15.863281 -25.804688 L 15.863281 -25.476562 L 15.699219 -24.894531 L 15.65625 -24.605469 L 15.699219 -24.273438 L 15.699219 -23.777344 L 15.535156 -23.402344 L 15.492188 -22.863281 L 15.367188 -22.328125 L 15.367188 -22.035156 L 15.285156 -21.789062 L 15.242188 -21.5 L 15.203125 -21.167969 L 15.160156 -20.875 L 15.121094 -20.628906 L 14.910156 -20.089844 L 14.996094 -19.839844 L 14.789062 -19.21875 L 14.746094 -18.929688 L 14.746094 -18.640625 L 14.582031 -18.265625 L 14.496094 -17.8125 L 14.457031 -17.605469 L 13.585938 -17.644531 L 13.253906 -17.605469 L 12.757812 -17.644531 L 12.425781 -17.605469 L 11.226562 -17.644531 L 10.894531 -17.644531 L 10.605469 -17.6875 L 10.6875 -18.019531 L 10.726562 -18.265625 L 10.8125 -18.597656 L 10.769531 -18.847656 L 10.851562 -19.136719 L 10.976562 -19.675781 L 10.933594 -19.964844 L 11.058594 -20.214844 L 11.101562 -20.503906 L 11.183594 -20.835938 L 11.265625 -21.042969 L 11.265625 -21.292969 L 11.308594 -21.789062 L 11.390625 -21.996094 L 11.433594 -22.535156 L 11.515625 -22.863281 L 11.597656 -23.15625 L 11.597656 -23.816406 L 11.722656 -24.109375 L 11.765625 -24.605469 L 11.847656 -25.183594 L 12.011719 -25.972656 L 12.054688 -26.34375 L 12.179688 -26.71875 L 12.21875 -27.296875 L 12.261719 -27.546875 L 12.386719 -28.042969 L 12.34375 -28.332031 L 12.34375 -28.582031 L 12.261719 -28.953125 L 11.847656 -29.039062 L 11.351562 -29.121094 L 10.933594 -28.996094 L 10.023438 -28.996094 L 9.445312 -29.039062 L 7.746094 -28.996094 L 6.710938 -28.996094 L 6.335938 -28.789062 L 6.296875 -28.332031 L 6.253906 -27.835938 L 6.128906 -27.296875 L 6.046875 -27.007812 L 6.089844 -26.675781 L 5.964844 -26.386719 L 5.921875 -26.097656 L 5.839844 -25.804688 L 5.882812 -25.226562 L 5.59375 -24.6875 L 5.59375 -23.816406 L 5.46875 -23.28125 L 5.425781 -23.03125 L 5.386719 -22.699219 L 5.21875 -22.367188 L 5.21875 -21.789062 L 5.179688 -21.582031 L 5.054688 -20.710938 L 4.96875 -20.378906 L 4.886719 -19.839844 L 4.722656 -18.972656 L 4.679688 -18.390625 L 4.640625 -18.101562 L 4.390625 -17.523438 L 4.347656 -16.941406 L 4.265625 -16.363281 L 4.226562 -16.113281 L 4.019531 -14.910156 L 3.851562 -14.332031 L 3.851562 -14 L 3.726562 -13.667969 L 3.605469 -13.378906 L 3.519531 -12.757812 L 3.519531 -12.46875 L 3.4375 -11.972656 L 3.3125 -11.558594 L 3.273438 -11.019531 L 3.105469 -10.4375 L 3.148438 -10.148438 L 3.066406 -9.816406 L 3.023438 -9.570312 L 2.941406 -9.320312 L 2.734375 -7.871094 L 2.652344 -7.539062 L 2.527344 -6.957031 L 2.527344 -6.628906 L 2.484375 -6.335938 L 2.320312 -5.964844 L 2.152344 -5.675781 L 2.195312 -5.09375 L 2.03125 -4.515625 L 2.070312 -4.183594 L 1.988281 -3.894531 L 1.738281 -3.4375 L 1.824219 -3.148438 L 1.738281 -2.898438 L 1.738281 -2.609375 L 1.65625 -2.238281 L 1.617188 -1.824219 L 1.410156 -1.285156 L 1.242188 -0.910156 L 1.242188 -0.578125 L 1.410156 -0.125 L 2.238281 -0.0429688 L 3.5625 -0.0429688 L 4.058594 0.0429688 L 4.347656 -0.0429688 L 4.640625 -0.0820312 L 4.929688 0.0429688 L 5.261719 0.0429688 L 5.882812 -0.0429688 L 6.378906 -0.0820312 L 6.75 -0.125 L 7.082031 -0.289062 L 7.289062 -0.703125 L 7.375 -1.324219 L 7.414062 -1.617188 L 7.496094 -1.945312 L 7.582031 -2.527344 L 7.582031 -2.816406 L 7.703125 -3.398438 L 7.746094 -3.726562 L 7.996094 -4.886719 L 8.078125 -5.507812 L 8.242188 -6.046875 L 8.285156 -6.253906 L 8.492188 -6.75 L 8.449219 -7 L 8.699219 -7.910156 L 8.90625 -8.863281 L 8.988281 -9.15625 L 8.988281 -9.859375 L 9.15625 -10.148438 L 9.238281 -10.6875 L 9.402344 -11.265625 L 9.445312 -11.597656 L 9.484375 -11.804688 L 10.191406 -11.765625 L 10.8125 -11.640625 L 12.136719 -11.765625 L 12.507812 -11.679688 L 12.800781 -11.679688 L 13.171875 -11.722656 L 13.089844 -11.226562 L 13.089844 -10.933594 L 13.007812 -10.355469 L 12.921875 -10.066406 L 12.800781 -9.484375 L 12.800781 -8.988281 L 12.714844 -8.574219 L 12.550781 -8.117188 L 12.300781 -6.875 L 12.21875 -6.089844 L 12.09375 -5.46875 L 12.054688 -4.886719 L 11.972656 -4.679688 L 11.929688 -4.140625 L 11.886719 -3.851562 L 11.886719 -3.5625 L 11.847656 -3.273438 L 11.679688 -2.402344 L 11.679688 -1.824219 L 11.515625 -1.53125 L 11.433594 -1.160156 L 11.390625 -0.785156 L 11.351562 -0.457031 L 11.597656 -0.0820312 L 11.886719 -0.0429688 L 12.179688 -0.0429688 L 12.632812 0 L 13.753906 0 Z M 14.082031 0.0820312 "/></g></g></g><g fill="#ffffff" fill-opacity="1"><g transform="translate(140.061634, 217.616295)"><g><path d="M 6.089844 0.0429688 L 6.421875 0 L 7.082031 -0.0429688 L 7.953125 -0.0429688 L 8.203125 -0.0820312 L 8.738281 -0.0429688 L 9.402344 -0.0820312 L 13.339844 -0.0820312 L 13.460938 -0.539062 L 13.546875 -0.910156 L 13.585938 -1.617188 L 13.710938 -2.238281 L 13.753906 -2.527344 L 13.835938 -2.773438 L 13.917969 -3.066406 L 13.917969 -3.605469 L 14.082031 -4.515625 L 14.125 -4.847656 L 14.207031 -5.300781 L 14.25 -5.46875 L 14.289062 -5.800781 L 14 -5.921875 L 12.839844 -5.882812 L 11.929688 -5.921875 L 11.351562 -5.964844 L 8.90625 -5.964844 L 8.324219 -6.046875 L 8.160156 -6.214844 L 8.160156 -6.542969 L 8.324219 -7.621094 L 8.449219 -8.367188 L 8.53125 -8.65625 L 8.574219 -9.070312 L 8.65625 -9.445312 L 8.78125 -9.859375 L 8.945312 -11.019531 L 9.070312 -11.558594 L 9.238281 -12.011719 L 9.609375 -12.011719 L 10.148438 -12.054688 L 10.605469 -12.054688 L 11.308594 -12.011719 L 12.34375 -12.054688 L 12.714844 -12.054688 L 13.339844 -12.09375 L 13.753906 -12.09375 L 13.835938 -12.179688 L 13.917969 -12.757812 L 14.042969 -13.421875 L 14.125 -14 L 14.25 -14.332031 L 14.25 -14.621094 L 14.375 -15.242188 L 14.457031 -15.535156 L 14.582031 -16.113281 L 14.664062 -16.570312 L 14.664062 -16.898438 L 14.746094 -17.398438 L 14.496094 -17.730469 L 14.167969 -17.8125 L 13.089844 -17.8125 L 12.300781 -17.730469 L 10.851562 -17.769531 L 10.105469 -17.769531 L 10.191406 -18.515625 L 10.3125 -18.929688 L 10.273438 -19.261719 L 10.355469 -19.550781 L 10.480469 -20.132812 L 10.5625 -20.710938 L 10.6875 -21.5 L 10.6875 -21.828125 L 10.8125 -22.078125 L 10.8125 -22.65625 L 10.851562 -22.949219 L 10.976562 -23.445312 L 11.972656 -23.488281 L 14.664062 -23.488281 L 15.160156 -23.527344 L 16.898438 -23.527344 L 17.316406 -23.570312 L 17.4375 -24.109375 L 17.480469 -24.355469 L 17.644531 -24.9375 L 17.644531 -25.269531 L 17.769531 -25.890625 L 17.8125 -26.136719 L 17.851562 -26.425781 L 17.976562 -26.71875 L 17.976562 -26.964844 L 18.058594 -28 L 18.058594 -28.25 L 18.183594 -28.707031 L 17.976562 -28.996094 L 17.605469 -29.039062 L 17.191406 -29.078125 L 16.816406 -29.039062 L 15.90625 -29.039062 L 14.703125 -28.996094 L 14.375 -29.039062 L 13.421875 -29.078125 L 10.3125 -29.039062 L 9.402344 -28.996094 L 8.988281 -28.996094 L 8.65625 -29.039062 L 8.367188 -29.039062 L 7.871094 -28.996094 L 7.582031 -29.039062 L 7.332031 -28.996094 L 6.628906 -28.996094 L 6.296875 -28.746094 L 6.253906 -28.5 L 6.128906 -28.25 L 6.007812 -27.753906 L 6.089844 -27.464844 L 6.046875 -27.214844 L 6.007812 -26.675781 L 5.964844 -26.425781 L 5.882812 -26.179688 L 5.839844 -25.640625 L 5.757812 -25.351562 L 5.800781 -25.101562 L 5.675781 -24.8125 L 5.675781 -24.523438 L 5.550781 -24.273438 L 5.46875 -23.695312 L 5.300781 -23.15625 L 5.261719 -22.863281 L 5.300781 -22.617188 L 5.261719 -22.328125 L 5.179688 -21.996094 L 5.011719 -21.746094 L 4.96875 -20.875 L 4.847656 -20.585938 L 4.804688 -19.425781 L 4.640625 -18.804688 L 4.515625 -18.226562 L 4.554688 -17.976562 L 4.472656 -17.6875 L 4.347656 -17.355469 L 4.101562 -16.113281 L 3.933594 -15.863281 L 3.933594 -15.574219 L 3.894531 -15.285156 L 3.851562 -14.953125 L 3.726562 -14.664062 L 3.644531 -14.042969 L 3.480469 -13.460938 L 3.480469 -12.839844 L 3.3125 -11.972656 L 3.230469 -11.679688 L 3.105469 -11.058594 L 3.066406 -10.769531 L 2.941406 -10.480469 L 2.816406 -9.941406 L 2.859375 -9.691406 L 2.691406 -9.195312 L 2.691406 -8.988281 L 2.609375 -8.449219 L 2.527344 -8.117188 L 2.527344 -7.828125 L 2.445312 -7.167969 L 2.277344 -6.835938 L 2.195312 -6.296875 L 2.152344 -5.714844 L 2.113281 -5.425781 L 2.03125 -5.09375 L 2.03125 -4.804688 L 1.945312 -4.515625 L 1.945312 -4.140625 L 1.824219 -3.8125 L 1.78125 -3.148438 L 1.617188 -2.527344 L 1.53125 -1.863281 L 1.449219 -1.242188 L 1.367188 -0.871094 L 1.242188 -0.496094 L 1.367188 -0.125 L 1.738281 -0.0429688 L 3.933594 -0.0429688 L 4.226562 0 L 5.300781 0 Z M 6.089844 0.0429688 "/></g></g></g><g fill="#ffffff" fill-opacity="1"><g transform="translate(154.100611, 217.616295)"><g><path d="M 2.113281 0.0820312 L 6.503906 0.0820312 L 6.957031 -0.0820312 L 7.082031 -0.496094 L 7.25 -0.992188 L 7.375 -1.738281 L 7.457031 -1.988281 L 7.457031 -2.527344 L 7.496094 -2.816406 L 7.621094 -3.355469 L 7.789062 -4.554688 L 7.871094 -4.847656 L 7.910156 -5.09375 L 7.996094 -5.675781 L 8.160156 -6.503906 L 8.324219 -7.125 L 8.410156 -7.703125 L 8.449219 -7.953125 L 8.410156 -8.242188 L 8.492188 -8.53125 L 8.617188 -9.03125 L 8.53125 -9.320312 L 8.65625 -9.859375 L 8.738281 -10.105469 L 8.90625 -11.722656 L 9.195312 -13.710938 L 9.238281 -14.746094 L 9.320312 -15.449219 L 9.363281 -15.90625 L 9.402344 -16.734375 L 9.445312 -17.894531 L 9.570312 -17.894531 L 9.816406 -16.320312 L 10.066406 -14.828125 L 10.191406 -13.667969 L 10.398438 -12.34375 L 10.5625 -11.183594 L 10.644531 -10.398438 L 10.8125 -9.570312 L 10.8125 -8.945312 L 10.851562 -8.699219 L 10.976562 -8.117188 L 11.019531 -7.871094 L 11.144531 -7.289062 L 11.144531 -7.042969 L 11.265625 -6.421875 L 11.390625 -5.964844 L 11.433594 -5.34375 L 11.515625 -4.761719 L 11.558594 -4.515625 L 11.722656 -3.644531 L 11.765625 -3.398438 L 11.847656 -2.527344 L 11.886719 -2.277344 L 11.929688 -1.78125 L 11.972656 -1.574219 L 12.179688 -0.992188 L 12.507812 -0.332031 L 12.839844 -0.0429688 L 13.546875 -0.0429688 L 14.082031 0 L 14.910156 0 L 15.160156 -0.0429688 L 15.574219 0 L 15.863281 -0.0429688 L 16.652344 0 L 16.816406 0 L 17.273438 -0.0820312 L 17.851562 -0.125 L 18.265625 -0.414062 L 18.640625 -0.910156 L 18.847656 -2.238281 L 18.972656 -2.773438 L 19.054688 -3.066406 L 19.054688 -3.3125 L 19.261719 -3.851562 L 19.261719 -4.515625 L 19.425781 -5.09375 L 19.550781 -5.425781 L 19.632812 -5.964844 L 19.675781 -6.503906 L 19.71875 -6.957031 L 19.882812 -7.457031 L 20.046875 -7.828125 L 20.132812 -8.242188 L 20.214844 -8.824219 L 20.378906 -9.402344 L 20.378906 -9.652344 L 20.421875 -9.898438 L 20.460938 -10.191406 L 20.503906 -10.4375 L 20.546875 -10.8125 L 20.628906 -11.183594 L 20.753906 -11.765625 L 20.875 -12.011719 L 20.875 -12.550781 L 20.917969 -12.800781 L 20.960938 -13.089844 L 21.042969 -13.339844 L 21.085938 -13.628906 L 21.167969 -13.875 L 21.125 -14.25 L 21.207031 -14.582031 L 21.292969 -15.160156 L 21.414062 -15.699219 L 21.5 -15.988281 L 21.621094 -16.527344 L 21.707031 -16.859375 L 21.746094 -17.148438 L 21.789062 -17.605469 L 21.914062 -17.976562 L 22.078125 -19.21875 L 22.160156 -19.511719 L 22.160156 -20.046875 L 22.242188 -20.339844 L 22.328125 -20.667969 L 22.449219 -21.042969 L 22.535156 -21.707031 L 22.699219 -22.367188 L 22.824219 -23.238281 L 22.90625 -23.570312 L 23.03125 -24.316406 L 23.15625 -24.769531 L 23.402344 -25.765625 L 23.488281 -26.34375 L 23.609375 -27.257812 L 23.570312 -27.585938 L 23.695312 -28.167969 L 23.695312 -28.5 L 23.652344 -28.828125 L 23.402344 -28.953125 L 22.824219 -29.078125 L 22.242188 -29.039062 L 21.828125 -29.039062 L 20.875 -29.078125 L 20.460938 -29.078125 L 20.171875 -29.039062 L 19.304688 -29.121094 L 18.515625 -28.953125 L 18.351562 -28.828125 L 18.019531 -28.25 L 17.851562 -27.378906 L 17.730469 -26.71875 L 17.6875 -26.46875 L 17.6875 -26.097656 L 17.5625 -25.765625 L 17.480469 -25.476562 L 17.355469 -24.894531 L 17.316406 -24.5625 L 17.230469 -23.984375 L 17.148438 -23.734375 L 17.109375 -23.445312 L 16.984375 -22.90625 L 16.984375 -22.65625 L 16.859375 -21.914062 L 16.898438 -21.621094 L 16.652344 -21.125 L 16.652344 -20.835938 L 16.609375 -20.339844 L 16.609375 -19.839844 L 16.445312 -19.304688 L 16.445312 -19.054688 L 16.363281 -18.472656 L 16.277344 -18.226562 L 16.238281 -17.644531 L 16.195312 -17.316406 L 16.15625 -17.023438 L 16.113281 -16.777344 L 15.988281 -16.195312 L 15.988281 -14.789062 L 15.863281 -13.917969 L 15.742188 -11.929688 L 15.742188 -11.351562 L 15.65625 -10.355469 L 15.617188 -9.527344 L 15.492188 -9.527344 L 15.367188 -10.4375 L 15.242188 -11.558594 L 15.160156 -12.054688 L 15.078125 -12.34375 L 15.078125 -12.632812 L 14.996094 -13.546875 L 14.828125 -14.496094 L 14.703125 -15.617188 L 14.621094 -15.949219 L 14.539062 -16.527344 L 14.496094 -17.191406 L 14.375 -17.894531 L 14.289062 -18.597656 L 14.167969 -19.21875 L 14.125 -19.675781 L 14.125 -19.964844 L 14 -20.421875 L 14 -20.667969 L 13.875 -21.207031 L 13.792969 -21.828125 L 13.753906 -22.121094 L 13.667969 -22.449219 L 13.503906 -23.28125 L 13.378906 -23.859375 L 13.253906 -24.5625 L 13.132812 -25.226562 L 12.964844 -26.21875 L 12.800781 -26.800781 L 12.757812 -27.257812 L 12.675781 -27.753906 L 12.507812 -28.167969 L 12.46875 -28.457031 L 12.21875 -28.828125 L 11.765625 -28.953125 L 11.183594 -28.953125 L 10.5625 -28.996094 L 10.066406 -28.953125 L 9.277344 -28.996094 L 8.738281 -28.953125 L 8.367188 -28.953125 L 7.664062 -28.996094 L 7.082031 -28.953125 L 6.667969 -28.871094 L 6.421875 -28.414062 L 6.296875 -28.207031 L 6.214844 -27.960938 L 6.089844 -27.421875 L 6.089844 -27.089844 L 5.964844 -26.550781 L 5.882812 -26.054688 L 5.800781 -25.515625 L 5.757812 -25.226562 L 5.675781 -24.976562 L 5.632812 -24.6875 L 5.59375 -24.4375 L 5.550781 -24.148438 L 5.507812 -23.609375 L 5.425781 -23.238281 L 5.261719 -22.863281 L 5.261719 -22.574219 L 5.054688 -21.414062 L 4.96875 -21.167969 L 4.929688 -20.875 L 4.929688 -20.378906 L 4.804688 -20.007812 L 4.679688 -19.550781 L 4.597656 -19.011719 L 4.515625 -18.722656 L 4.515625 -18.433594 L 4.390625 -18.144531 L 4.390625 -17.8125 L 4.265625 -17.480469 L 4.226562 -17.148438 L 4.226562 -16.570312 L 4.140625 -16.15625 L 4.058594 -15.824219 L 3.851562 -15.328125 L 3.8125 -14.910156 L 3.769531 -14.332031 L 3.726562 -14.042969 L 3.6875 -13.792969 L 3.480469 -13.296875 L 3.480469 -13.046875 L 3.4375 -12.800781 L 3.398438 -12.261719 L 3.3125 -12.011719 L 3.273438 -11.722656 L 3.191406 -11.226562 L 3.066406 -10.769531 L 2.980469 -10.398438 L 2.898438 -9.898438 L 2.734375 -9.238281 L 2.652344 -8.699219 L 2.691406 -8.410156 L 2.652344 -8.160156 L 2.527344 -7.664062 L 2.484375 -7.375 L 2.445312 -6.875 L 2.277344 -6.585938 L 2.277344 -6.046875 L 2.195312 -5.714844 L 2.195312 -5.425781 L 2.070312 -4.761719 L 1.988281 -4.390625 L 1.863281 -3.8125 L 1.78125 -3.605469 L 1.65625 -3.023438 L 1.617188 -2.734375 L 1.449219 -2.152344 L 1.367188 -1.492188 L 1.367188 -0.828125 L 1.285156 -0.496094 L 1.492188 0 Z M 2.113281 0.0820312 "/></g></g></g><g fill="#ffffff" fill-opacity="1"><g transform="translate(174.848662, 217.616295)"><g><path d="M 5.46875 0.0820312 L 5.800781 0.0429688 L 6.421875 0 L 6.792969 -0.0429688 L 7.207031 0 L 7.332031 -0.371094 L 7.457031 -0.664062 L 7.496094 -1.160156 L 7.539062 -1.449219 L 7.539062 -1.699219 L 7.582031 -1.988281 L 7.621094 -2.527344 L 7.621094 -2.773438 L 7.703125 -3.066406 L 7.664062 -3.3125 L 7.789062 -3.894531 L 7.789062 -4.226562 L 7.871094 -4.472656 L 7.910156 -4.804688 L 8.078125 -5.675781 L 8.160156 -6.007812 L 8.160156 -6.875 L 8.324219 -7.207031 L 8.410156 -7.789062 L 8.410156 -8.035156 L 8.492188 -8.617188 L 8.699219 -9.15625 L 8.699219 -9.859375 L 8.824219 -10.726562 L 8.863281 -11.058594 L 8.988281 -11.640625 L 9.070312 -11.886719 L 9.113281 -12.054688 L 9.402344 -12.011719 L 9.570312 -11.847656 L 9.734375 -11.515625 L 9.816406 -11.183594 L 9.984375 -10.851562 L 10.066406 -10.4375 L 10.191406 -9.859375 L 10.273438 -9.652344 L 10.3125 -9.070312 L 10.480469 -8.53125 L 10.5625 -7.996094 L 10.644531 -7.703125 L 10.8125 -7.207031 L 10.851562 -6.917969 L 11.101562 -6.171875 L 11.101562 -5.675781 L 11.265625 -5.261719 L 11.390625 -4.804688 L 11.433594 -4.515625 L 11.558594 -4.265625 L 11.558594 -3.976562 L 11.679688 -3.6875 L 11.765625 -3.148438 L 11.847656 -3.023438 L 11.972656 -2.691406 L 11.972656 -2.359375 L 12.21875 -1.738281 L 12.34375 -1.285156 L 12.425781 -1.078125 L 12.550781 -0.578125 L 12.632812 -0.371094 L 13.007812 0 L 13.253906 0.0429688 L 13.628906 0 L 13.960938 0 L 14.414062 -0.0429688 L 14.953125 -0.0429688 L 16.03125 -0.164062 L 16.898438 -0.289062 L 17.4375 -0.289062 L 17.894531 -0.371094 L 18.101562 -0.414062 L 18.226562 -0.953125 L 17.9375 -1.738281 L 17.851562 -2.113281 L 17.8125 -2.402344 L 17.769531 -2.898438 L 17.480469 -3.605469 L 17.398438 -4.183594 L 16.941406 -5.675781 L 16.859375 -6.214844 L 16.652344 -6.835938 L 16.652344 -7.082031 L 16.484375 -7.621094 L 16.402344 -7.953125 L 16.277344 -8.242188 L 16.195312 -8.824219 L 16.113281 -9.070312 L 15.988281 -9.609375 L 15.863281 -9.859375 L 15.78125 -10.398438 L 15.742188 -10.726562 L 15.574219 -10.976562 L 15.492188 -11.515625 L 15.492188 -11.886719 L 15.285156 -12.507812 L 15.160156 -12.839844 L 15.160156 -13.214844 L 15.449219 -13.253906 L 16.03125 -13.546875 L 16.859375 -14.082031 L 17.4375 -14.703125 L 17.644531 -14.910156 L 18.101562 -15.449219 L 18.226562 -15.699219 L 18.558594 -16.238281 L 18.722656 -16.609375 L 18.847656 -16.898438 L 19.21875 -17.4375 L 19.425781 -17.9375 L 19.550781 -18.226562 L 19.632812 -18.472656 L 19.71875 -18.765625 L 19.882812 -19.261719 L 20.007812 -19.675781 L 20.089844 -20.339844 L 20.214844 -21 L 20.214844 -21.292969 L 20.171875 -21.914062 L 20.214844 -22.203125 L 20.339844 -22.78125 L 20.339844 -23.113281 L 20.214844 -23.902344 L 20.214844 -24.191406 L 20.132812 -24.976562 L 20.007812 -25.640625 L 19.71875 -26.21875 L 19.425781 -26.71875 L 19.261719 -26.925781 L 19.054688 -27.171875 L 18.886719 -27.339844 L 18.390625 -27.628906 L 18.183594 -27.753906 L 17.9375 -27.878906 L 17.5625 -28.125 L 17.273438 -28.207031 L 16.898438 -28.375 L 16.445312 -28.582031 L 16.113281 -28.664062 L 15.449219 -28.664062 L 14.996094 -28.746094 L 14.375 -28.789062 L 13.835938 -28.871094 L 13.460938 -28.871094 L 12.839844 -28.953125 L 12.507812 -29.039062 L 12.09375 -28.996094 L 11.804688 -28.953125 L 10.023438 -28.953125 L 7.539062 -28.996094 L 6.957031 -28.996094 L 6.542969 -28.914062 L 6.253906 -28.582031 L 6.089844 -28.375 L 6.128906 -27.917969 L 5.964844 -27.585938 L 5.964844 -27.257812 L 5.921875 -26.964844 L 5.882812 -26.632812 L 5.714844 -25.476562 L 5.59375 -24.8125 L 5.46875 -24.316406 L 5.386719 -24.023438 L 5.386719 -23.777344 L 5.34375 -23.238281 L 5.34375 -22.988281 L 5.300781 -22.742188 L 5.179688 -22.160156 L 5.054688 -21.5 L 4.929688 -20.917969 L 4.886719 -20.667969 L 4.847656 -20.089844 L 4.679688 -19.59375 L 4.640625 -19.34375 L 4.640625 -19.054688 L 4.597656 -18.804688 L 4.515625 -18.265625 L 4.472656 -17.976562 L 4.433594 -17.730469 L 4.433594 -17.4375 L 4.226562 -16.570312 L 4.226562 -16.238281 L 4.140625 -15.65625 L 4.058594 -15.121094 L 4.019531 -14.871094 L 3.933594 -14.414062 L 3.851562 -14.125 L 3.851562 -13.875 L 3.726562 -13.628906 L 3.644531 -13.339844 L 3.605469 -12.839844 L 3.644531 -12.59375 L 3.5625 -12.34375 L 3.355469 -12.054688 L 3.355469 -11.679688 L 3.3125 -11.351562 L 3.273438 -11.058594 L 3.105469 -10.480469 L 3.105469 -10.148438 L 3.066406 -9.527344 L 2.980469 -9.113281 L 2.980469 -8.738281 L 2.773438 -7.996094 L 2.773438 -7.375 L 2.609375 -7.042969 L 2.652344 -6.710938 L 2.609375 -6.421875 L 2.527344 -6.089844 L 2.484375 -5.507812 L 2.359375 -5.179688 L 2.402344 -4.886719 L 2.277344 -4.554688 L 2.277344 -4.265625 L 2.152344 -3.6875 L 2.113281 -3.398438 L 2.113281 -3.148438 L 1.988281 -2.859375 L 1.988281 -2.566406 L 1.90625 -2.320312 L 1.90625 -2.03125 L 1.863281 -1.574219 L 1.824219 -1.160156 L 1.699219 -0.746094 L 1.699219 -0.371094 L 1.78125 -0.125 L 2.152344 -0.0429688 L 3.4375 0.0429688 L 3.976562 0.0429688 Z M 10.851562 -16.984375 L 10.148438 -17.066406 L 10.191406 -17.398438 L 10.148438 -17.6875 L 10.191406 -17.976562 L 10.3125 -18.640625 L 10.398438 -19.011719 L 10.355469 -19.386719 L 10.480469 -19.757812 L 10.5625 -20.378906 L 10.5625 -20.667969 L 10.6875 -21.332031 L 10.769531 -21.664062 L 10.8125 -22.203125 L 10.851562 -22.824219 L 10.933594 -23.488281 L 11.058594 -23.777344 L 11.183594 -24.230469 L 11.558594 -24.355469 L 12.550781 -24.316406 L 13.460938 -24.191406 L 13.835938 -23.984375 L 14.125 -23.695312 L 14.332031 -23.320312 L 14.457031 -22.449219 L 14.496094 -21.539062 L 14.457031 -20.875 L 14.332031 -20.546875 L 14.332031 -20.214844 L 14.042969 -19.632812 L 14 -19.386719 L 13.917969 -19.054688 L 13.710938 -18.515625 L 13.421875 -18.265625 L 13.253906 -18.019531 L 12.964844 -17.6875 L 12.675781 -17.523438 L 12.261719 -17.273438 L 12.011719 -17.109375 L 11.515625 -16.984375 Z M 10.851562 -16.984375 "/></g></g></g><g fill="#ffffff" fill-opacity="1"><g transform="translate(192.739146, 217.616295)"><g><path d="M 5.714844 0.0820312 L 6.792969 0.0820312 L 7.25 -0.0429688 L 7.375 -0.414062 L 7.414062 -0.746094 L 7.539062 -1.285156 L 7.621094 -1.863281 L 7.746094 -2.402344 L 7.910156 -3.398438 L 8.035156 -3.851562 L 8.035156 -4.140625 L 8.117188 -4.679688 L 8.203125 -5.261719 L 8.324219 -5.839844 L 8.324219 -6.171875 L 8.492188 -6.710938 L 8.53125 -7.042969 L 8.65625 -7.664062 L 8.617188 -8.117188 L 8.824219 -8.53125 L 8.824219 -9.113281 L 8.863281 -9.320312 L 8.945312 -9.898438 L 8.945312 -10.230469 L 9.113281 -10.8125 L 9.113281 -11.144531 L 9.277344 -11.722656 L 9.363281 -12.21875 L 9.445312 -12.757812 L 9.570312 -13.296875 L 9.570312 -13.628906 L 9.691406 -13.917969 L 9.859375 -14.496094 L 10.066406 -15.742188 L 10.191406 -16.15625 L 10.273438 -16.691406 L 10.273438 -16.984375 L 10.3125 -17.316406 L 10.355469 -17.605469 L 10.355469 -17.976562 L 10.480469 -18.351562 L 10.605469 -18.929688 L 10.644531 -19.136719 L 10.769531 -19.675781 L 10.894531 -20.171875 L 10.976562 -20.710938 L 11.019531 -21 L 11.058594 -21.5 L 11.101562 -21.789062 L 11.183594 -22.285156 L 11.265625 -22.535156 L 11.351562 -22.988281 L 11.558594 -24.066406 L 11.597656 -24.316406 L 11.597656 -24.605469 L 11.640625 -24.851562 L 11.640625 -25.183594 L 11.804688 -25.558594 L 11.886719 -26.136719 L 12.011719 -26.34375 L 12.011719 -26.71875 L 12.136719 -26.882812 L 12.09375 -27.132812 L 12.136719 -27.585938 L 12.21875 -27.710938 L 12.21875 -28.25 L 12.261719 -28.5 L 12.09375 -28.914062 L 11.640625 -29.039062 L 11.351562 -28.996094 L 9.15625 -28.996094 L 8.863281 -28.953125 L 8.285156 -28.953125 L 7.910156 -28.996094 L 7.289062 -28.953125 L 7 -28.914062 L 6.75 -28.746094 L 6.460938 -28.621094 L 6.171875 -28.207031 L 6.128906 -27.917969 L 6.046875 -27.671875 L 5.964844 -27.050781 L 5.800781 -26.59375 L 5.714844 -26.136719 L 5.675781 -25.640625 L 5.59375 -25.390625 L 5.550781 -25.144531 L 5.425781 -24.605469 L 5.34375 -24.023438 L 5.261719 -23.816406 L 5.21875 -23.28125 L 5.179688 -22.949219 L 5.21875 -22.65625 L 5.054688 -22.121094 L 5.011719 -21.828125 L 4.886719 -21.292969 L 4.847656 -21.042969 L 4.679688 -20.546875 L 4.722656 -20.253906 L 4.679688 -20.007812 L 4.597656 -19.425781 L 4.472656 -19.136719 L 4.472656 -18.558594 L 4.347656 -17.6875 L 4.140625 -17.109375 L 4.019531 -16.570312 L 3.933594 -16.070312 L 3.933594 -15.535156 L 3.769531 -15.203125 L 3.6875 -14.621094 L 3.6875 -14.332031 L 3.519531 -13.753906 L 3.519531 -13.171875 L 3.4375 -12.59375 L 3.398438 -12.34375 L 3.355469 -12.054688 L 3.273438 -11.765625 L 3.273438 -11.515625 L 3.191406 -10.894531 L 2.898438 -9.984375 L 2.941406 -9.691406 L 2.859375 -9.402344 L 2.816406 -9.15625 L 2.734375 -8.863281 L 2.734375 -8.574219 L 2.652344 -8.078125 L 2.566406 -7.703125 L 2.445312 -7.332031 L 2.359375 -6.957031 L 2.238281 -6.503906 L 2.113281 -5.757812 L 2.152344 -5.507812 L 1.988281 -4.96875 L 1.945312 -4.679688 L 1.863281 -4.347656 L 1.824219 -4.058594 L 1.699219 -3.4375 L 1.65625 -3.105469 L 1.574219 -2.527344 L 1.492188 -2.238281 L 1.449219 -1.617188 L 1.242188 -1.035156 L 1.285156 -0.414062 L 1.617188 -0.125 L 1.945312 -0.0429688 L 2.277344 -0.0820312 L 2.566406 -0.0429688 L 3.023438 0 L 3.3125 -0.0429688 L 3.644531 -0.0429688 L 4.226562 0.0429688 L 5.425781 0.0429688 Z M 5.714844 0.0820312 "/></g></g></g><g fill="#ffffff" fill-opacity="1"><g transform="translate(202.056931, 217.616295)"><g><path d="M 15.742188 2.527344 L 16.277344 2.238281 L 16.984375 2.03125 L 17.769531 1.53125 L 18.226562 1.324219 L 18.679688 1.035156 L 18.972656 0.871094 L 19.550781 0.457031 L 19.511719 0.0429688 L 19.386719 -0.25 L 19.011719 -0.457031 L 18.679688 -0.910156 L 18.351562 -1.324219 L 18.226562 -1.410156 L 17.9375 -1.78125 L 17.644531 -2.113281 L 17.273438 -2.609375 L 16.691406 -3.398438 L 16.445312 -3.8125 L 16.652344 -4.019531 L 17.109375 -4.554688 L 17.355469 -5.09375 L 17.730469 -5.839844 L 17.976562 -6.710938 L 18.265625 -7.457031 L 18.265625 -7.703125 L 18.390625 -7.953125 L 18.679688 -9.070312 L 18.972656 -10.3125 L 18.972656 -10.5625 L 19.054688 -10.8125 L 19.011719 -11.101562 L 19.136719 -11.640625 L 19.21875 -11.929688 L 19.34375 -12.507812 L 19.425781 -12.882812 L 19.46875 -13.253906 L 19.59375 -13.960938 L 19.675781 -14.664062 L 19.71875 -14.953125 L 19.71875 -15.242188 L 19.800781 -15.535156 L 19.882812 -16.070312 L 19.882812 -16.363281 L 19.925781 -16.609375 L 20.007812 -17.191406 L 20.089844 -17.4375 L 20.046875 -18.101562 L 20.171875 -18.972656 L 20.214844 -19.21875 L 20.253906 -19.511719 L 20.296875 -19.757812 L 20.339844 -21.828125 L 20.339844 -22.078125 L 20.378906 -23.238281 L 20.296875 -23.527344 L 20.339844 -24.109375 L 20.253906 -24.355469 L 20.253906 -24.894531 L 20.046875 -25.351562 L 19.964844 -25.640625 L 19.925781 -25.972656 L 19.632812 -26.511719 L 19.34375 -27.007812 L 19.097656 -27.421875 L 18.847656 -27.628906 L 18.597656 -27.878906 L 18.351562 -28.085938 L 18.058594 -28.25 L 17.769531 -28.457031 L 17.480469 -28.582031 L 17.109375 -28.707031 L 16.691406 -28.871094 L 16.363281 -29.039062 L 15.742188 -29.203125 L 15.492188 -29.285156 L 14.828125 -29.410156 L 14.582031 -29.410156 L 13.960938 -29.453125 L 13.710938 -29.492188 L 12.757812 -29.492188 L 12.21875 -29.410156 L 11.929688 -29.367188 L 11.515625 -29.328125 L 11.183594 -29.203125 L 10.769531 -29.121094 L 10.3125 -29.039062 L 9.816406 -28.871094 L 9.527344 -28.746094 L 9.113281 -28.457031 L 8.738281 -28.292969 L 8.492188 -28.125 L 8.035156 -27.835938 L 7.582031 -27.421875 L 7.375 -27.214844 L 7.125 -27.007812 L 6.667969 -26.550781 L 6.296875 -26.097656 L 5.800781 -25.144531 L 5.675781 -24.976562 L 5.300781 -24.023438 L 5.054688 -23.445312 L 4.96875 -23.195312 L 4.679688 -22.285156 L 4.640625 -22.035156 L 4.308594 -21.125 L 4.183594 -20.585938 L 4.183594 -20.339844 L 4.101562 -20.046875 L 4.101562 -19.800781 L 4.019531 -19.550781 L 3.933594 -19.261719 L 3.894531 -18.929688 L 3.8125 -18.640625 L 3.644531 -18.144531 L 3.5625 -17.644531 L 3.5625 -17.355469 L 3.4375 -17.109375 L 3.398438 -16.609375 L 3.273438 -16.363281 L 3.230469 -16.113281 L 3.148438 -15.824219 L 3.105469 -15.492188 L 2.980469 -14.871094 L 2.859375 -14.289062 L 2.859375 -13.753906 L 2.734375 -13.214844 L 2.609375 -12.054688 L 2.609375 -11.886719 L 2.484375 -11.390625 L 2.445312 -10.8125 L 2.320312 -10.398438 L 2.320312 -9.484375 L 2.238281 -8.988281 L 2.152344 -8.738281 L 2.238281 -8.492188 L 2.195312 -7.953125 L 2.195312 -6.875 L 2.277344 -6.335938 L 2.402344 -5.46875 L 2.402344 -4.886719 L 2.609375 -4.265625 L 2.941406 -3.105469 L 3.066406 -2.816406 L 3.6875 -1.945312 L 3.8125 -1.78125 L 3.933594 -1.53125 L 4.140625 -1.367188 L 4.597656 -0.953125 L 4.847656 -0.746094 L 5.136719 -0.496094 L 5.59375 -0.289062 L 5.882812 -0.164062 L 6.128906 -0.0429688 L 6.667969 0.0820312 L 7.332031 0.25 L 7.828125 0.332031 L 8.242188 0.332031 L 8.617188 0.414062 L 9.15625 0.371094 L 10.105469 0.414062 L 11.019531 0.25 L 11.804688 -0.0429688 L 12.386719 -0.207031 L 12.839844 -0.371094 L 12.921875 -0.25 L 13.007812 -0.0820312 L 13.253906 0.332031 L 13.421875 0.621094 L 13.546875 0.828125 L 13.917969 1.203125 L 14.414062 1.738281 L 14.664062 1.90625 L 15.160156 2.359375 Z M 9.570312 -4.847656 L 9.238281 -5.011719 L 8.824219 -5.261719 L 8.53125 -5.46875 L 8.242188 -6.128906 L 8.117188 -6.792969 L 8.035156 -7.414062 L 7.996094 -7.664062 L 8.035156 -8.035156 L 8.117188 -8.574219 L 8.203125 -9.070312 L 8.160156 -9.484375 L 8.160156 -9.777344 L 8.242188 -10.273438 L 8.285156 -10.605469 L 8.367188 -10.894531 L 8.410156 -11.226562 L 8.574219 -11.847656 L 8.65625 -12.59375 L 8.65625 -12.800781 L 8.78125 -13.339844 L 8.824219 -14 L 8.945312 -14.539062 L 9.113281 -15.328125 L 9.238281 -16.070312 L 9.570312 -17.398438 L 9.652344 -17.851562 L 9.734375 -18.058594 L 9.859375 -18.929688 L 9.984375 -19.46875 L 10.066406 -20.007812 L 10.230469 -20.421875 L 10.480469 -21.414062 L 10.6875 -21.953125 L 10.769531 -22.285156 L 10.851562 -22.535156 L 11.019531 -23.15625 L 11.183594 -23.28125 L 11.308594 -23.652344 L 11.929688 -24.273438 L 12.675781 -24.4375 L 13.378906 -24.355469 L 13.667969 -24.230469 L 14.207031 -23.816406 L 14.375 -23.488281 L 14.457031 -23.238281 L 14.664062 -22.78125 L 14.621094 -22.492188 L 14.621094 -21.871094 L 14.582031 -21.125 L 14.582031 -20.503906 L 14.621094 -20.214844 L 14.539062 -19.59375 L 14.496094 -19.261719 L 14.539062 -19.011719 L 14.496094 -18.058594 L 14.375 -17.730469 L 14.332031 -17.398438 L 14.289062 -16.777344 L 14.125 -16.15625 L 14.082031 -15.90625 L 14.125 -15.574219 L 14.042969 -15.035156 L 13.917969 -14.746094 L 13.917969 -14.496094 L 13.792969 -13.875 L 13.710938 -13.171875 L 13.503906 -12.261719 L 13.546875 -11.886719 L 13.378906 -11.390625 L 13.171875 -10.5625 L 13.007812 -9.859375 L 12.921875 -9.195312 L 12.800781 -8.53125 L 12.675781 -7.910156 L 12.507812 -7.621094 L 12.34375 -6.917969 L 12.136719 -6.421875 L 12.054688 -6.128906 L 11.722656 -5.714844 L 11.472656 -5.46875 L 11.265625 -5.300781 L 10.851562 -5.011719 L 10.273438 -4.847656 Z M 9.570312 -4.847656 "/></g></g></g><g fill="#ffffff" fill-opacity="1"><g transform="translate(220.692872, 217.616295)"><g><path d="M 8.988281 0.25 L 9.816406 0.25 L 10.4375 0.207031 L 11.390625 0.207031 L 12.21875 0.125 L 12.46875 0.0429688 L 12.839844 -0.0429688 L 13.339844 -0.164062 L 13.585938 -0.25 L 14.25 -0.496094 L 14.457031 -0.664062 L 14.953125 -0.871094 L 15.285156 -1.078125 L 15.65625 -1.285156 L 15.988281 -1.699219 L 16.363281 -1.988281 L 16.609375 -2.359375 L 16.777344 -2.734375 L 16.984375 -3.023438 L 17.148438 -3.3125 L 17.398438 -3.894531 L 17.5625 -4.140625 L 17.851562 -4.679688 L 17.976562 -5.21875 L 18.183594 -5.46875 L 18.308594 -6.171875 L 18.472656 -6.710938 L 18.640625 -7.207031 L 18.722656 -7.496094 L 18.804688 -7.746094 L 18.804688 -8.035156 L 18.886719 -8.410156 L 19.011719 -8.863281 L 19.097656 -9.15625 L 19.097656 -9.402344 L 19.21875 -9.941406 L 19.386719 -10.4375 L 19.386719 -10.519531 L 19.511719 -11.101562 L 19.550781 -11.390625 L 19.71875 -11.972656 L 19.839844 -12.507812 L 19.925781 -13.007812 L 19.964844 -13.546875 L 20.132812 -13.875 L 20.214844 -14.457031 L 20.214844 -14.746094 L 20.378906 -15.328125 L 20.421875 -15.90625 L 20.503906 -16.484375 L 20.546875 -16.734375 L 20.667969 -17.316406 L 20.667969 -17.5625 L 20.792969 -18.183594 L 21.085938 -19.097656 L 21.042969 -19.386719 L 21.125 -19.675781 L 21.167969 -19.925781 L 21.25 -20.214844 L 21.25 -20.503906 L 21.375 -21 L 21.457031 -21.375 L 21.582031 -21.746094 L 21.664062 -22.121094 L 21.789062 -22.574219 L 21.789062 -22.824219 L 21.953125 -23.320312 L 21.914062 -23.570312 L 22.078125 -24.109375 L 22.121094 -24.398438 L 22.203125 -24.730469 L 22.242188 -25.019531 L 22.410156 -25.597656 L 22.449219 -25.929688 L 22.535156 -26.511719 L 22.617188 -26.839844 L 22.65625 -27.464844 L 22.90625 -28.042969 L 22.863281 -28.664062 L 22.535156 -28.996094 L 22.203125 -29.039062 L 21.828125 -28.996094 L 21.539062 -28.953125 L 21.125 -28.996094 L 20.835938 -28.953125 L 20.503906 -28.953125 L 20.214844 -28.996094 L 19.925781 -28.996094 L 18.722656 -28.953125 L 18.433594 -28.996094 L 18.144531 -28.996094 L 16.898438 -28.953125 L 16.777344 -28.664062 L 16.734375 -28.332031 L 16.609375 -27.792969 L 16.484375 -27.214844 L 16.363281 -26.675781 L 16.320312 -26.425781 L 16.277344 -25.929688 L 16.238281 -25.683594 L 16.03125 -25.226562 L 16.070312 -24.9375 L 15.988281 -24.398438 L 15.90625 -23.816406 L 15.78125 -23.238281 L 15.742188 -22.90625 L 15.65625 -22.328125 L 15.617188 -21.996094 L 15.449219 -21.414062 L 15.492188 -20.960938 L 15.242188 -20.546875 L 15.242188 -19.964844 L 15.203125 -19.757812 L 15.121094 -19.179688 L 15.121094 -18.847656 L 14.953125 -18.265625 L 14.910156 -17.9375 L 14.746094 -17.355469 L 14.664062 -16.859375 L 14.539062 -16.320312 L 14.457031 -15.78125 L 14.457031 -15.449219 L 14.25 -14.871094 L 14.167969 -14.582031 L 14.125 -14.082031 L 13.960938 -13.339844 L 13.875 -12.921875 L 13.792969 -12.386719 L 13.753906 -12.09375 L 13.667969 -11.765625 L 13.585938 -11.472656 L 13.546875 -11.101562 L 13.460938 -10.726562 L 13.378906 -10.480469 L 13.339844 -10.066406 L 13.253906 -9.777344 L 13.132812 -9.195312 L 12.921875 -8.367188 L 12.839844 -8.117188 L 12.757812 -7.746094 L 12.550781 -7.332031 L 12.261719 -6.667969 L 12.136719 -6.421875 L 11.886719 -6.089844 L 11.472656 -5.757812 L 10.519531 -5.632812 L 9.652344 -5.757812 L 9.195312 -5.882812 L 8.738281 -6.421875 L 8.699219 -6.917969 L 8.699219 -7.375 L 8.65625 -8.035156 L 8.699219 -8.324219 L 8.738281 -8.574219 L 8.78125 -8.945312 L 8.90625 -9.941406 L 9.03125 -10.480469 L 9.070312 -11.058594 L 9.195312 -11.886719 L 9.402344 -13.378906 L 9.484375 -13.875 L 9.652344 -14.414062 L 9.652344 -14.953125 L 9.777344 -15.449219 L 9.859375 -15.699219 L 9.941406 -15.988281 L 9.984375 -16.320312 L 10.023438 -16.691406 L 10.191406 -17.066406 L 10.105469 -17.605469 L 10.148438 -17.851562 L 10.355469 -18.433594 L 10.355469 -18.722656 L 10.4375 -19.054688 L 10.480469 -19.34375 L 10.519531 -19.757812 L 10.644531 -20.046875 L 10.6875 -20.296875 L 10.769531 -20.917969 L 10.894531 -21.539062 L 10.933594 -21.871094 L 11.144531 -22.449219 L 11.183594 -22.742188 L 11.183594 -23.15625 L 11.226562 -23.488281 L 11.308594 -24.023438 L 11.472656 -24.523438 L 11.472656 -24.8125 L 11.558594 -25.0625 L 11.597656 -25.351562 L 11.679688 -25.683594 L 11.765625 -26.054688 L 11.847656 -26.34375 L 11.804688 -26.925781 L 11.886719 -27.214844 L 11.972656 -27.464844 L 11.972656 -28.042969 L 11.929688 -28.664062 L 11.558594 -28.953125 L 10.894531 -28.996094 L 10.519531 -29.039062 L 9.527344 -28.953125 L 7.789062 -28.996094 L 7.414062 -28.953125 L 7.207031 -28.953125 L 6.503906 -28.914062 L 6.253906 -28.828125 L 6.171875 -28.5 L 6.007812 -27.917969 L 5.921875 -27.339844 L 5.839844 -26.925781 L 5.757812 -26.71875 L 5.550781 -26.179688 L 5.425781 -25.019531 L 5.34375 -24.769531 L 5.34375 -24.480469 L 5.21875 -23.902344 L 5.21875 -23.570312 L 5.179688 -23.238281 L 5.054688 -22.65625 L 5.011719 -22.328125 L 4.96875 -22.035156 L 4.761719 -21.5 L 4.722656 -21.25 L 4.722656 -20.960938 L 4.640625 -20.421875 L 4.554688 -20.171875 L 4.433594 -19.011719 L 4.308594 -18.765625 L 4.265625 -18.183594 L 4.265625 -17.851562 L 4.101562 -17.273438 L 3.976562 -16.734375 L 3.933594 -16.15625 L 3.769531 -15.617188 L 3.769531 -15.078125 L 3.6875 -14.789062 L 3.5625 -14.289062 L 3.519531 -14 L 3.5625 -13.710938 L 3.4375 -13.214844 L 3.398438 -12.964844 L 3.355469 -12.675781 L 3.191406 -12.179688 L 3.191406 -11.640625 L 3.105469 -11.226562 L 3.023438 -10.726562 L 2.980469 -10.105469 L 2.941406 -9.570312 L 2.773438 -8.449219 L 2.691406 -8.078125 L 2.652344 -6.667969 L 2.609375 -6.421875 L 2.773438 -5.011719 L 2.816406 -4.433594 L 2.980469 -3.769531 L 3.3125 -3.191406 L 3.644531 -2.527344 L 3.6875 -2.402344 L 3.894531 -2.070312 L 4.101562 -1.824219 L 4.347656 -1.53125 L 4.761719 -1.117188 L 5.59375 -0.621094 L 5.839844 -0.496094 L 6.128906 -0.371094 L 6.835938 -0.125 L 7 -0.0429688 L 7.289062 0.0429688 Z M 8.988281 0.25 "/></g></g></g><g fill="#ffffff" fill-opacity="1"><g transform="translate(240.157085, 217.616295)"><g><path d="M 6.089844 0.0429688 L 6.421875 0 L 7.082031 -0.0429688 L 7.953125 -0.0429688 L 8.203125 -0.0820312 L 8.738281 -0.0429688 L 9.402344 -0.0820312 L 13.339844 -0.0820312 L 13.460938 -0.539062 L 13.546875 -0.910156 L 13.585938 -1.617188 L 13.710938 -2.238281 L 13.753906 -2.527344 L 13.835938 -2.773438 L 13.917969 -3.066406 L 13.917969 -3.605469 L 14.082031 -4.515625 L 14.125 -4.847656 L 14.207031 -5.300781 L 14.25 -5.46875 L 14.289062 -5.800781 L 14 -5.921875 L 12.839844 -5.882812 L 11.929688 -5.921875 L 11.351562 -5.964844 L 8.90625 -5.964844 L 8.324219 -6.046875 L 8.160156 -6.214844 L 8.160156 -6.542969 L 8.324219 -7.621094 L 8.449219 -8.367188 L 8.53125 -8.65625 L 8.574219 -9.070312 L 8.65625 -9.445312 L 8.78125 -9.859375 L 8.945312 -11.019531 L 9.070312 -11.558594 L 9.238281 -12.011719 L 9.609375 -12.011719 L 10.148438 -12.054688 L 10.605469 -12.054688 L 11.308594 -12.011719 L 12.34375 -12.054688 L 12.714844 -12.054688 L 13.339844 -12.09375 L 13.753906 -12.09375 L 13.835938 -12.179688 L 13.917969 -12.757812 L 14.042969 -13.421875 L 14.125 -14 L 14.25 -14.332031 L 14.25 -14.621094 L 14.375 -15.242188 L 14.457031 -15.535156 L 14.582031 -16.113281 L 14.664062 -16.570312 L 14.664062 -16.898438 L 14.746094 -17.398438 L 14.496094 -17.730469 L 14.167969 -17.8125 L 13.089844 -17.8125 L 12.300781 -17.730469 L 10.851562 -17.769531 L 10.105469 -17.769531 L 10.191406 -18.515625 L 10.3125 -18.929688 L 10.273438 -19.261719 L 10.355469 -19.550781 L 10.480469 -20.132812 L 10.5625 -20.710938 L 10.6875 -21.5 L 10.6875 -21.828125 L 10.8125 -22.078125 L 10.8125 -22.65625 L 10.851562 -22.949219 L 10.976562 -23.445312 L 11.972656 -23.488281 L 14.664062 -23.488281 L 15.160156 -23.527344 L 16.898438 -23.527344 L 17.316406 -23.570312 L 17.4375 -24.109375 L 17.480469 -24.355469 L 17.644531 -24.9375 L 17.644531 -25.269531 L 17.769531 -25.890625 L 17.8125 -26.136719 L 17.851562 -26.425781 L 17.976562 -26.71875 L 17.976562 -26.964844 L 18.058594 -28 L 18.058594 -28.25 L 18.183594 -28.707031 L 17.976562 -28.996094 L 17.605469 -29.039062 L 17.191406 -29.078125 L 16.816406 -29.039062 L 15.90625 -29.039062 L 14.703125 -28.996094 L 14.375 -29.039062 L 13.421875 -29.078125 L 10.3125 -29.039062 L 9.402344 -28.996094 L 8.988281 -28.996094 L 8.65625 -29.039062 L 8.367188 -29.039062 L 7.871094 -28.996094 L 7.582031 -29.039062 L 7.332031 -28.996094 L 6.628906 -28.996094 L 6.296875 -28.746094 L 6.253906 -28.5 L 6.128906 -28.25 L 6.007812 -27.753906 L 6.089844 -27.464844 L 6.046875 -27.214844 L 6.007812 -26.675781 L 5.964844 -26.425781 L 5.882812 -26.179688 L 5.839844 -25.640625 L 5.757812 -25.351562 L 5.800781 -25.101562 L 5.675781 -24.8125 L 5.675781 -24.523438 L 5.550781 -24.273438 L 5.46875 -23.695312 L 5.300781 -23.15625 L 5.261719 -22.863281 L 5.300781 -22.617188 L 5.261719 -22.328125 L 5.179688 -21.996094 L 5.011719 -21.746094 L 4.96875 -20.875 L 4.847656 -20.585938 L 4.804688 -19.425781 L 4.640625 -18.804688 L 4.515625 -18.226562 L 4.554688 -17.976562 L 4.472656 -17.6875 L 4.347656 -17.355469 L 4.101562 -16.113281 L 3.933594 -15.863281 L 3.933594 -15.574219 L 3.894531 -15.285156 L 3.851562 -14.953125 L 3.726562 -14.664062 L 3.644531 -14.042969 L 3.480469 -13.460938 L 3.480469 -12.839844 L 3.3125 -11.972656 L 3.230469 -11.679688 L 3.105469 -11.058594 L 3.066406 -10.769531 L 2.941406 -10.480469 L 2.816406 -9.941406 L 2.859375 -9.691406 L 2.691406 -9.195312 L 2.691406 -8.988281 L 2.609375 -8.449219 L 2.527344 -8.117188 L 2.527344 -7.828125 L 2.445312 -7.167969 L 2.277344 -6.835938 L 2.195312 -6.296875 L 2.152344 -5.714844 L 2.113281 -5.425781 L 2.03125 -5.09375 L 2.03125 -4.804688 L 1.945312 -4.515625 L 1.945312 -4.140625 L 1.824219 -3.8125 L 1.78125 -3.148438 L 1.617188 -2.527344 L 1.53125 -1.863281 L 1.449219 -1.242188 L 1.367188 -0.871094 L 1.242188 -0.496094 L 1.367188 -0.125 L 1.738281 -0.0429688 L 3.933594 -0.0429688 L 4.226562 0 L 5.300781 0 Z M 6.089844 0.0429688 "/></g></g></g></svg>