<svg width="25" height="25" viewBox="0 0 25 25" fill="none" xmlns="http://www.w3.org/2000/svg">
<path d="M19.916 7.43751C20.171 6.69877 20.2639 5.91378 20.1884 5.13593C20.1129 4.35808 19.8708 3.6056 19.4785 2.92969C19.4443 2.87037 19.395 2.8211 19.3357 2.78682C19.2764 2.75253 19.2091 2.73445 19.1406 2.73438C18.258 2.73188 17.388 2.94388 16.6054 3.35216C15.8229 3.76044 15.1513 4.35276 14.6484 5.07813H11.9141C11.4112 4.35276 10.7396 3.76044 9.95706 3.35216C9.17453 2.94388 8.30451 2.73188 7.42188 2.73438C7.35337 2.73445 7.2861 2.75253 7.22679 2.78682C7.16748 2.8211 7.11824 2.87037 7.08398 2.92969C6.69168 3.6056 6.44955 4.35808 6.37406 5.13593C6.29856 5.91378 6.39148 6.69877 6.64648 7.43751C6.14026 8.25465 5.868 9.19505 5.85938 10.1563V10.9375C5.86093 12.2838 6.39644 13.5746 7.34844 14.5266C8.30043 15.4786 9.59117 16.0141 10.9375 16.0156H11.0752C10.6667 16.3448 10.3371 16.7613 10.1105 17.2344C9.88391 17.7075 9.76607 18.2254 9.76562 18.75V19.9219H7.03125C6.30605 19.9219 5.61055 19.6338 5.09775 19.121C4.58496 18.6082 4.29688 17.9127 4.29688 17.1875C4.29688 16.2551 3.92648 15.3609 3.26717 14.7016C2.60786 14.0423 1.71365 13.6719 0.78125 13.6719C0.67765 13.6719 0.578293 13.713 0.505036 13.7863C0.43178 13.8595 0.390625 13.9589 0.390625 14.0625C0.390625 14.1661 0.43178 14.2655 0.505036 14.3387C0.578293 14.412 0.67765 14.4531 0.78125 14.4531C1.50645 14.4531 2.20195 14.7412 2.71475 15.254C3.22754 15.7668 3.51562 16.4623 3.51562 17.1875C3.51562 18.1199 3.88602 19.0141 4.54533 19.6734C5.20464 20.3327 6.09885 20.7031 7.03125 20.7031H9.76562V22.6563C9.76562 22.7599 9.80678 22.8592 9.88004 22.9325C9.95329 23.0057 10.0526 23.0469 10.1562 23.0469C10.2599 23.0469 10.3592 23.0057 10.4325 22.9325C10.5057 22.8592 10.5469 22.7599 10.5469 22.6563V18.75C10.5469 18.0248 10.835 17.3293 11.3478 16.8165C11.8605 16.3037 12.556 16.0156 13.2812 16.0156C14.0065 16.0156 14.702 16.3037 15.2147 16.8165C15.7275 17.3293 16.0156 18.0248 16.0156 18.75V22.6563C16.0156 22.7599 16.0568 22.8592 16.13 22.9325C16.2033 23.0057 16.3026 23.0469 16.4062 23.0469C16.5098 23.0469 16.6092 23.0057 16.6825 22.9325C16.7557 22.8592 16.7969 22.7599 16.7969 22.6563V18.75C16.7964 18.2254 16.6786 17.7075 16.452 17.2344C16.2254 16.7613 15.8958 16.3448 15.4873 16.0156H15.625C16.9713 16.0141 18.2621 15.4786 19.2141 14.5266C20.1661 13.5746 20.7016 12.2838 20.7031 10.9375V10.1563C20.6945 9.19505 20.4222 8.25465 19.916 7.43751ZM19.9219 10.9375C19.9206 12.0767 19.4675 13.1689 18.6619 13.9744C17.8564 14.78 16.7642 15.2331 15.625 15.2344H10.9375C9.7983 15.2331 8.70612 14.78 7.90058 13.9744C7.09504 13.1689 6.64192 12.0767 6.64062 10.9375V10.1563C6.65074 9.29019 6.91233 8.44573 7.39355 7.72559C7.43326 7.6726 7.45884 7.61038 7.4679 7.54478C7.47695 7.47918 7.46918 7.41236 7.44531 7.35059C7.20654 6.73419 7.10135 6.07411 7.13671 5.41402C7.17206 4.75393 7.34715 4.10887 7.65039 3.52149C8.39852 3.55621 9.12731 3.77043 9.77523 4.14606C10.4232 4.52169 10.9712 5.04771 11.373 5.67969C11.4084 5.73484 11.4571 5.78021 11.5146 5.81161C11.5721 5.84301 11.6366 5.85944 11.7021 5.85938H14.8604C14.9259 5.85944 14.9904 5.84301 15.0479 5.81161C15.1054 5.78021 15.1541 5.73484 15.1895 5.67969C15.5913 5.04771 16.1393 4.52169 16.7873 4.14606C17.4352 3.77043 18.164 3.55621 18.9121 3.52149C19.2154 4.10887 19.3904 4.75393 19.4258 5.41402C19.4611 6.07411 19.356 6.73419 19.1172 7.35059C19.0935 7.41223 19.0858 7.47886 19.0949 7.54427C19.1039 7.60968 19.1294 7.67173 19.1689 7.72462C19.6499 8.44525 19.9114 9.28994 19.9219 10.1563V10.9375Z" fill="white"/>
</svg>
